<?xml version="1.0" encoding="utf-8"?>
<!-- Generator: Adobe Illustrator 24.3.0, SVG Export Plug-In . SVG Version: 6.00 Build 0)  -->
<svg version="1.1" id="Capa_1" xmlns="http://www.w3.org/2000/svg" xmlns:xlink="http://www.w3.org/1999/xlink" x="0px" y="0px"
	 viewBox="0 0 459 459" style="enable-background:new 0 0 459 459;" xml:space="preserve">
<g>
	<g id="call">
		<path d="M151.2,212.1c20.3,40.6,55.1,74,95.7,95.7l31.9-31.9c4.3-4.3,10.1-5.8,14.5-2.9c15.9,5.8,33.3,8.7,52.2,8.7
			c8.7,0,14.5,5.8,14.5,14.5v49.3c0,8.7-5.8,14.5-14.5,14.5C209.2,360,99,249.8,99,113.5c0-8.7,5.8-14.5,14.5-14.5h50.8
			c8.7,0,14.5,5.8,14.5,14.5c0,17.4,2.9,34.8,8.7,52.2c1.5,4.4,0,10.2-2.9,14.5L151.2,212.1z"/>
	</g>
</g>
</svg>
