<?xml version="1.0" encoding="utf-8"?>
<!-- Generator: Adobe Illustrator 24.3.0, SVG Export Plug-In . SVG Version: 6.00 Build 0)  -->
<svg version="1.1" id="Layer_1" xmlns="http://www.w3.org/2000/svg" xmlns:xlink="http://www.w3.org/1999/xlink" x="0px" y="0px"
	 viewBox="0 0 138.6 292.3" style="enable-background:new 0 0 138.6 292.3;" xml:space="preserve">
<style type="text/css">
	.st0{fill:#0000FF;}
</style>
<path class="st0" d="M19.1,151.5c16.9,32.3,25.8,57.9,33.6,98.1c9.4,40.6,42.2,48.7,63.2,39.1c16.9-7.6,25-23.9,22.2-43.2
	c-3-21-10.8-40.4-19-59.7c-5.4-12.7-9.8-25.8-13-39.1c-2.7-11.5-1.9-23.5,2.4-34.4c7-18.1,6.1-36.5,0.7-54.4
	C104.4,42.1,98,26.9,91.7,11.7c-3-7.3-9.4-11-17.4-11.6C69.4-0.3,65.5,1.6,61.8,5c-2,1.8-19.7,16.3-37.2,30.6
	C2.9,53.4-5.5,82.8,3.6,109.4L19.1,151.5z"/>
</svg>
