<?xml version="1.0" encoding="utf-8"?>
<!-- Generator: Adobe Illustrator 24.3.0, SVG Export Plug-In . SVG Version: 6.00 Build 0)  -->
<svg version="1.1" id="Layer_1" xmlns="http://www.w3.org/2000/svg" xmlns:xlink="http://www.w3.org/1999/xlink" x="0px" y="0px"
	 viewBox="0 0 157 364.8" style="enable-background:new 0 0 157 364.8;" xml:space="preserve">
<g>
	
		<image style="overflow:visible;" width="175" height="261" xlink:href="556317A93FF3027E.png"  transform="matrix(1 0 0 1 6 -9.0549)">
	</image>
</g>
<g>
	
		<image style="overflow:visible;" width="162" height="190" xlink:href="556317A93FF30282.png"  transform="matrix(1 0 0 1 -24 182.9451)">
	</image>
</g>
<g>
	<path d="M108.1,214.8l-58-18.2c-2.4-0.7-4-2.8-4.2-5.3c-1-11.7-3.6-39-3-51.8c1.2-27.9,9.2-55,23.3-79.1c6-10,13.6-18.9,22.6-26.3
		c14.2-11.3,31-6.5,38.5,10.1c7.8,17.5,13.1,36,15.6,55c5.5,41.1,2,55.7-27.5,112.6C113.9,214.4,110.9,215.7,108.1,214.8z"/>
</g>
<g>
	<path d="M98.6,239.4c2.3,0.8,3.6,3.3,3,5.7c-4.9,18.2-9.1,36.3-17.9,52.8c-2,3.8-4.4,7.3-7.2,10.5c-42,47.8-71.2,33.8-63.2-29.3
		c1.4-11.3,5.8-21.9,10.7-32.3c3.5-7.6,8.4-16.7,12.6-24.6c1.1-2,3.5-3,5.7-2.2L98.6,239.4z"/>
</g>
</svg>
