<?xml version="1.0" encoding="utf-8"?>
<!-- Svg Vector Icons : http://www.onlinewebfonts.com/icon -->
<!DOCTYPE svg PUBLIC "-//W3C//DTD SVG 1.1//EN" "http://www.w3.org/Graphics/SVG/1.1/DTD/svg11.dtd">
<svg version="1.1" xmlns="http://www.w3.org/2000/svg" xmlns:xlink="http://www.w3.org/1999/xlink" x="0px" y="0px" viewBox="0 0 1000 1000" enable-background="new 0 0 1000 1000" xml:space="preserve">
<metadata> Svg Vector Icons : http://www.onlinewebfonts.com/icon </metadata>
<g><g transform="translate(0.000000,512.000000) scale(0.100000,-0.100000)"><path d="M4877.9,5008c-875.5-78.5-1670.6-377.4-2339.2-879.4c-185.8-139.8-546-484.7-710.8-682C1308.8,2824,967.8,1998.3,881.6,1161c-26.8-277.8-13.4-827.6,28.7-1072.9c166.7-986.6,639.9-1831.5,1360.2-2436.9c1162.9-979,2802.8-1180.1,4149.6-513.4C7395.3-2379.3,8062-1517.2,8293.8-440.6c46,224.2,49.8,275.9,49.8,691.6c0,415.7-3.8,467.5-51.7,691.6C8050.5,2073,7301.4,2938.9,6251.6,3304.8c-323.8,111.1-524.9,147.5-913.8,159c-295,9.6-379.3,3.8-582.4-30.7c-942.6-160.9-1684-710.8-2080.6-1542.2c-291.2-607.3-339.1-1318.1-132.2-1956c272-831.4,973.2-1446.4,1818.1-1592c247.1-44.1,706.9-28.7,929.2,30.7c375.5,99.6,668.6,266.3,931.1,526.8c337.2,335.3,511.5,695.4,565.2,1174.4C6834,498.2,6707.5,956,6450.8,1299c-394.6,523-1113.1,739.5-1697.4,509.6c-268.2-105.4-507.7-310.4-630.3-542.2c-70.9-132.2-136-371.7-136-498.1c0-354.4,189.7-687.8,471.3-825.7c99.6-49.8,157.1-63.2,277.8-70.9c141.8-7.7,160.9-3.9,279.7,53.6c239.5,118.8,371.7,312.3,342.9,505.8c-19.2,118.8-120.7,279.7-212.7,333.3c-93.9,53.7-233.7,49.8-312.3-9.6c-70.9-51.7-137.9-155.2-137.9-212.6c0-72.8-47.9-21.1-76.6,82.4c-49.8,176.3,9.6,365.9,155.2,496.2c122.6,113,228,151.3,433,160.9c226.1,11.5,392.7-36.4,553.7-157.1c139.9-103.4,178.2-145.6,266.3-289.3c107.3-180.1,151.3-348.7,151.3-584.3c0-373.6-107.3-637.9-371.7-900.4c-185.8-185.8-316.1-268.2-540.3-346.7c-797-272-1674.4,109.2-2048,892.8c-151.4,316.1-180.1,456-178.2,862.1c0,383.2,21.1,492.4,149.4,806.6c189.7,463.6,609.2,885.1,1103.5,1101.6c567.1,251,1274,260.5,1866,23c1201.2-477,1839.2-1816.2,1502-3157.2c-139.9-565.2-486.6-1109.2-944.5-1484.7C5740.1-2752.9,4287.9-2866,3159.5-2228c-274,155.2-478.9,312.3-714.6,551.7c-463.6,469.4-758.6,1028.8-906.2,1716.6c-46,222.2-49.8,272-49.8,708.8c0,438.7,3.8,484.7,51.7,714.6c235.7,1101.6,896.6,1986.7,1871.7,2500.1c797,419.6,1770.2,549.8,2672.5,360.2c1747.2-369.8,3011.6-1821.9,3189.8-3668.8c86.2-896.6-132.2-1877.5-593.9-2651.5c-440.6-741.4-1107.3-1348.7-1887.1-1720.4c-440.6-208.8-839.1-329.5-1344.9-410c-262.5-42.1-867.9-59.4-1138-30.6C3161.4-4040.4,2159.4-3571,1368.2-2781.7c-220.3,220.3-452.1,503.8-632.2,772c-137.9,208.8-197.3,252.9-331.4,252.9c-124.5,0-214.6-57.5-270.1-168.6c-65.1-136-46-205,128.4-463.6c812.3-1205,2034.6-2019.3,3436.9-2291.3c388.9-76.6,616.9-97.7,1053.7-97.7c456,0,676.3,23,1095.8,107.3c1718.5,346.8,3124.7,1534.6,3732,3149.6c551.7,1473.3,379.3,3155.3-456,4435.1c-364,557.5-885.1,1070.9-1433,1413.9c-728,454-1618.8,701.2-2488.6,689.7C5067.6,5015.6,4920.1,5011.8,4877.9,5008z"/></g></g>
</svg>